<?xml version="1.0" encoding="UTF-8" standalone="no"?>
<!DOCTYPE svg PUBLIC "-//W3C//DTD SVG 1.1//EN"
 "http://www.w3.org/Graphics/SVG/1.1/DTD/svg11.dtd">
<!-- Generated by graphviz version 2.40.1 (20161225.0304)
 -->
<!-- Title: %3 Pages: 1 -->
<svg width="388pt" height="1306pt"
 viewBox="0.00 0.00 387.63 1306.00" xmlns="http://www.w3.org/2000/svg" xmlns:xlink="http://www.w3.org/1999/xlink">
<g id="graph0" class="graph" transform="scale(1 1) rotate(0) translate(4 1302)">
<title>%3</title>
<polygon fill="#ffffff" stroke="transparent" points="-4,4 -4,-1302 383.628,-1302 383.628,4 -4,4"/>
<!-- EMPREGADO -->
<g id="node1" class="node">
<title>EMPREGADO</title>
<polygon fill="#ffffff" stroke="#000000" points="240.205,-233 169.205,-233 169.205,-197 240.205,-197 240.205,-233"/>
<text text-anchor="middle" x="204.705" y="-212.5" font-family="Courier,monospace" font-size="10.00" fill="#000000">EMPREGADO</text>
</g>
<!-- EMPREGADO_IdEmp -->
<g id="node2" class="node">
<title>EMPREGADO_IdEmp</title>
<ellipse fill="#ffffff" stroke="#000000" cx="56.391" cy="-404" rx="27.8353" ry="18"/>
<text text-anchor="start" x="40.891" y="-402.5" font-family="Courier,monospace" text-decoration="underline" font-size="10.00" fill="#000000">IdEmp</text>
</g>
<!-- EMPREGADO_IdEmp&#45;&#45;EMPREGADO -->
<g id="edge1" class="edge">
<title>EMPREGADO_IdEmp&#45;&#45;EMPREGADO</title>
<path fill="none" stroke="#000000" d="M81.407,-395.8529C91.9871,-391.4966 103.8919,-385.2921 112.782,-377 157.8303,-334.9819 186.736,-265.7918 198.5785,-233.1366"/>
</g>
<!-- EMPREGADO_Nome -->
<g id="node3" class="node">
<title>EMPREGADO_Nome</title>
<ellipse fill="#ffffff" stroke="#000000" cx="56.391" cy="-350" rx="27" ry="18"/>
<text text-anchor="middle" x="56.391" y="-347.5" font-family="Courier,monospace" font-size="10.00" fill="#000000">Nome</text>
</g>
<!-- EMPREGADO_Nome&#45;&#45;EMPREGADO -->
<g id="edge2" class="edge">
<title>EMPREGADO_Nome&#45;&#45;EMPREGADO</title>
<path fill="none" stroke="#000000" d="M80.1435,-341.2615C90.7221,-336.7283 102.977,-330.5485 112.782,-323 146.7296,-296.865 176.9958,-256.364 192.9021,-233.0994"/>
</g>
<!-- EMPREGADO_Funcao -->
<g id="node4" class="node">
<title>EMPREGADO_Funcao</title>
<ellipse fill="#ffffff" stroke="#000000" cx="56.391" cy="-296" rx="31.3996" ry="18"/>
<text text-anchor="middle" x="56.391" y="-293.5" font-family="Courier,monospace" font-size="10.00" fill="#000000">Funcao</text>
</g>
<!-- EMPREGADO_Funcao&#45;&#45;EMPREGADO -->
<g id="edge3" class="edge">
<title>EMPREGADO_Funcao&#45;&#45;EMPREGADO</title>
<path fill="none" stroke="#000000" d="M81.0421,-284.7504C90.9944,-280.0657 102.528,-274.4541 112.782,-269 134.0253,-257.7007 157.3979,-243.952 175.2591,-233.1555"/>
</g>
<!-- EMPREGADO_Ordenado -->
<g id="node5" class="node">
<title>EMPREGADO_Ordenado</title>
<ellipse fill="#ffffff" stroke="#000000" cx="56.391" cy="-242" rx="38.0276" ry="18"/>
<text text-anchor="middle" x="56.391" y="-239.5" font-family="Courier,monospace" font-size="10.00" fill="#000000">Ordenado</text>
</g>
<!-- EMPREGADO_Ordenado&#45;&#45;EMPREGADO -->
<g id="edge4" class="edge">
<title>EMPREGADO_Ordenado&#45;&#45;EMPREGADO</title>
<path fill="none" stroke="#000000" d="M92.2937,-235.4641C115.6123,-231.219 145.8804,-225.7088 169.1329,-221.4758"/>
</g>
<!-- EMPREGADO_Restaurante -->
<g id="node6" class="node">
<title>EMPREGADO_Restaurante</title>
<ellipse fill="#ffffff" stroke="#000000" cx="56.391" cy="-188" rx="48.7185" ry="18"/>
<text text-anchor="middle" x="56.391" y="-185.5" font-family="Courier,monospace" font-size="10.00" fill="#000000">Restaurante</text>
</g>
<!-- EMPREGADO_Restaurante&#45;&#45;EMPREGADO -->
<g id="edge5" class="edge">
<title>EMPREGADO_Restaurante&#45;&#45;EMPREGADO</title>
<path fill="none" stroke="#000000" d="M100.4885,-196.0278C122.348,-200.0072 148.4021,-204.7503 168.9914,-208.4985"/>
</g>
<!-- EMPREGADO_DataNasc -->
<g id="node7" class="node">
<title>EMPREGADO_DataNasc</title>
<ellipse fill="#ffffff" stroke="#000000" cx="56.391" cy="-134" rx="38.0276" ry="18"/>
<text text-anchor="middle" x="56.391" y="-131.5" font-family="Courier,monospace" font-size="10.00" fill="#000000">DataNasc</text>
</g>
<!-- EMPREGADO_DataNasc&#45;&#45;EMPREGADO -->
<g id="edge6" class="edge">
<title>EMPREGADO_DataNasc&#45;&#45;EMPREGADO</title>
<path fill="none" stroke="#000000" d="M83.8715,-146.5864C93.139,-150.9818 103.4864,-156.0556 112.782,-161 134.0253,-172.2993 157.3979,-186.048 175.2591,-196.8445"/>
</g>
<!-- EMPREGADO_Idade -->
<g id="node8" class="node">
<title>EMPREGADO_Idade</title>
<ellipse fill="none" stroke="#000000" stroke-dasharray="5,2" cx="56.391" cy="-80" rx="27.8353" ry="18"/>
<text text-anchor="middle" x="56.391" y="-77.5" font-family="Courier,monospace" font-size="10.00" fill="#000000">Idade</text>
</g>
<!-- EMPREGADO_Idade&#45;&#45;EMPREGADO -->
<g id="edge7" class="edge">
<title>EMPREGADO_Idade&#45;&#45;EMPREGADO</title>
<path fill="none" stroke="#000000" d="M80.7018,-88.9786C91.1513,-93.489 103.149,-99.5839 112.782,-107 146.7296,-133.135 176.9958,-173.636 192.9021,-196.9006"/>
</g>
<!-- EMPREGADO_Cliente -->
<g id="node9" class="node">
<title>EMPREGADO_Cliente</title>
<ellipse fill="#ffffff" stroke="#000000" cx="56.391" cy="-22" rx="34.9396" ry="18"/>
<ellipse fill="none" stroke="#000000" cx="56.391" cy="-22" rx="38.9636" ry="22"/>
<text text-anchor="middle" x="56.391" y="-19.5" font-family="Courier,monospace" font-size="10.00" fill="#000000">Cliente</text>
</g>
<!-- EMPREGADO_Cliente&#45;&#45;EMPREGADO -->
<g id="edge8" class="edge">
<title>EMPREGADO_Cliente&#45;&#45;EMPREGADO</title>
<path fill="none" stroke="#000000" d="M87.7448,-35.2919C96.5299,-40.0104 105.6245,-45.9383 112.782,-53 156.5192,-96.1513 185.9691,-164.4864 198.2471,-196.8534"/>
</g>
<!-- CLIENTE -->
<g id="node10" class="node">
<title>CLIENTE</title>
<polygon fill="#ffffff" stroke="#000000" points="234.205,-617 175.205,-617 175.205,-581 234.205,-581 234.205,-617"/>
<text text-anchor="middle" x="204.705" y="-596.5" font-family="Courier,monospace" font-size="10.00" fill="#000000">CLIENTE</text>
</g>
<!-- CLIENTE_IdCli -->
<g id="node11" class="node">
<title>CLIENTE_IdCli</title>
<ellipse fill="#ffffff" stroke="#000000" cx="56.391" cy="-736" rx="27.8353" ry="18"/>
<text text-anchor="start" x="40.891" y="-734.5" font-family="Courier,monospace" text-decoration="underline" font-size="10.00" fill="#000000">IdCli</text>
</g>
<!-- CLIENTE_IdCli&#45;&#45;CLIENTE -->
<g id="edge9" class="edge">
<title>CLIENTE_IdCli&#45;&#45;CLIENTE</title>
<path fill="none" stroke="#000000" d="M80.7338,-727.0627C91.1892,-722.56 103.1827,-716.4595 112.782,-709 147.1723,-682.2757 177.5002,-640.6855 193.2492,-617.0421"/>
</g>
<!-- CLIENTE_Nome -->
<g id="node12" class="node">
<title>CLIENTE_Nome</title>
<ellipse fill="#ffffff" stroke="#000000" cx="56.391" cy="-682" rx="27" ry="18"/>
<text text-anchor="middle" x="56.391" y="-679.5" font-family="Courier,monospace" font-size="10.00" fill="#000000">Nome</text>
</g>
<!-- CLIENTE_Nome&#45;&#45;CLIENTE -->
<g id="edge10" class="edge">
<title>CLIENTE_Nome&#45;&#45;CLIENTE</title>
<path fill="none" stroke="#000000" d="M78.8806,-671.8654C89.3147,-667.0028 101.8087,-660.95 112.782,-655 134.6307,-643.1532 158.5884,-628.5008 176.5665,-617.1557"/>
</g>
<!-- CLIENTE_Localidade -->
<g id="node13" class="node">
<title>CLIENTE_Localidade</title>
<ellipse fill="#ffffff" stroke="#000000" cx="56.391" cy="-628" rx="52.2822" ry="18"/>
<text text-anchor="middle" x="56.391" y="-625.5" font-family="Courier,monospace" font-size="10.00" fill="#000000">Localidade ?</text>
</g>
<!-- CLIENTE_Localidade&#45;&#45;CLIENTE -->
<g id="edge11" class="edge">
<title>CLIENTE_Localidade&#45;&#45;CLIENTE</title>
<path fill="none" stroke="#000000" d="M102.1003,-619.0624C125.7619,-614.4358 153.9779,-608.9187 174.8267,-604.8421"/>
</g>
<!-- CLIENTE_Telemovel -->
<g id="node14" class="node">
<title>CLIENTE_Telemovel</title>
<ellipse fill="#ffffff" stroke="#000000" cx="56.391" cy="-570" rx="41.6089" ry="18"/>
<ellipse fill="none" stroke="#000000" cx="56.391" cy="-570" rx="45.5911" ry="22"/>
<text text-anchor="middle" x="56.391" y="-567.5" font-family="Courier,monospace" font-size="10.00" fill="#000000">Telemovel</text>
</g>
<!-- CLIENTE_Telemovel&#45;&#45;CLIENTE -->
<g id="edge12" class="edge">
<title>CLIENTE_Telemovel&#45;&#45;CLIENTE</title>
<path fill="none" stroke="#000000" d="M98.8918,-578.3102C123.2018,-583.0636 153.0993,-588.9095 174.906,-593.1734"/>
</g>
<!-- CLIENTE_CRefeicao -->
<g id="node15" class="node">
<title>CLIENTE_CRefeicao</title>
<ellipse fill="#ffffff" stroke="#000000" cx="56.391" cy="-512" rx="41.5911" ry="18"/>
<text text-anchor="middle" x="56.391" y="-509.5" font-family="Courier,monospace" font-size="10.00" fill="#000000">CRefeicao</text>
</g>
<!-- CLIENTE_CRefeicao&#45;&#45;CLIENTE -->
<g id="edge13" class="edge">
<title>CLIENTE_CRefeicao&#45;&#45;CLIENTE</title>
<path fill="none" stroke="#000000" d="M85.4521,-525.0172C94.3477,-529.2399 104.0785,-534.104 112.782,-539 135.8698,-551.9876 160.9859,-568.5604 179.1212,-580.9961"/>
</g>
<!-- CLIENTE_Restaurante -->
<g id="node16" class="node">
<title>CLIENTE_Restaurante</title>
<ellipse fill="#ffffff" stroke="#000000" cx="56.391" cy="-458" rx="48.7185" ry="18"/>
<text text-anchor="middle" x="56.391" y="-455.5" font-family="Courier,monospace" font-size="10.00" fill="#000000">Restaurante</text>
</g>
<!-- CLIENTE_Restaurante&#45;&#45;CLIENTE -->
<g id="edge14" class="edge">
<title>CLIENTE_Restaurante&#45;&#45;CLIENTE</title>
<path fill="none" stroke="#000000" d="M90.047,-471.0977C97.9117,-474.9547 105.9723,-479.6119 112.782,-485 147.8729,-512.7651 178.1618,-556.236 193.6655,-580.6939"/>
</g>
<!-- RESTAURANTE -->
<g id="node17" class="node">
<title>RESTAURANTE</title>
<polygon fill="#ffffff" stroke="#000000" points="379.628,-1028 296.628,-1028 296.628,-992 379.628,-992 379.628,-1028"/>
<text text-anchor="middle" x="338.128" y="-1007.5" font-family="Courier,monospace" font-size="10.00" fill="#000000">RESTAURANTE</text>
</g>
<!-- RESTAURANTE_IdRes_ -->
<g id="node18" class="node">
<title>RESTAURANTE_IdRes_</title>
<ellipse fill="#ffffff" stroke="#000000" cx="204.705" cy="-1145" rx="31.3996" ry="18"/>
<text text-anchor="start" x="186.205" y="-1143.5" font-family="Courier,monospace" text-decoration="underline" font-size="10.00" fill="#000000">IdRes_</text>
</g>
<!-- RESTAURANTE_IdRes_&#45;&#45;RESTAURANTE -->
<g id="edge15" class="edge">
<title>RESTAURANTE_IdRes_&#45;&#45;RESTAURANTE</title>
<path fill="none" stroke="#000000" d="M231.3616,-1135.3787C241.2069,-1131.0243 252.0456,-1125.2154 260.628,-1118 291.3646,-1092.1592 316.1217,-1051.5524 328.8281,-1028.19"/>
</g>
<!-- RESTAURANTE_Nome -->
<g id="node19" class="node">
<title>RESTAURANTE_Nome</title>
<ellipse fill="#ffffff" stroke="#000000" cx="204.705" cy="-1091" rx="27" ry="18"/>
<text text-anchor="middle" x="204.705" y="-1088.5" font-family="Courier,monospace" font-size="10.00" fill="#000000">Nome</text>
</g>
<!-- RESTAURANTE_Nome&#45;&#45;RESTAURANTE -->
<g id="edge16" class="edge">
<title>RESTAURANTE_Nome&#45;&#45;RESTAURANTE</title>
<path fill="none" stroke="#000000" d="M227.4427,-1081.021C237.7683,-1076.2374 250.0185,-1070.2046 260.628,-1064 279.3137,-1053.0723 299.3347,-1039.0569 314.3459,-1028.0432"/>
</g>
<!-- RESTAURANTE_Responsavel -->
<g id="node20" class="node">
<title>RESTAURANTE_Responsavel</title>
<ellipse fill="#ffffff" stroke="#000000" cx="204.705" cy="-1037" rx="48.7185" ry="18"/>
<text text-anchor="middle" x="204.705" y="-1034.5" font-family="Courier,monospace" font-size="10.00" fill="#000000">Responsavel</text>
</g>
<!-- RESTAURANTE_Responsavel&#45;&#45;RESTAURANTE -->
<g id="edge17" class="edge">
<title>RESTAURANTE_Responsavel&#45;&#45;RESTAURANTE</title>
<path fill="none" stroke="#000000" d="M247.6553,-1028.3084C263.3482,-1025.1327 281.059,-1021.5487 296.6235,-1018.399"/>
</g>
<!-- RESTAURANTE_Especialidade -->
<g id="node21" class="node">
<title>RESTAURANTE_Especialidade</title>
<ellipse fill="#ffffff" stroke="#000000" cx="204.705" cy="-983" rx="55.8461" ry="18"/>
<text text-anchor="middle" x="204.705" y="-980.5" font-family="Courier,monospace" font-size="10.00" fill="#000000">Especialidade</text>
</g>
<!-- RESTAURANTE_Especialidade&#45;&#45;RESTAURANTE -->
<g id="edge18" class="edge">
<title>RESTAURANTE_Especialidade&#45;&#45;RESTAURANTE</title>
<path fill="none" stroke="#000000" d="M252.1206,-992.5952C266.6515,-995.5357 282.5188,-998.7467 296.6235,-1001.601"/>
</g>
<!-- RESTAURANTE_Horario -->
<g id="node22" class="node">
<title>RESTAURANTE_Horario</title>
<ellipse fill="#ffffff" stroke="#000000" cx="204.705" cy="-929" rx="34.9638" ry="18"/>
<text text-anchor="middle" x="204.705" y="-926.5" font-family="Courier,monospace" font-size="10.00" fill="#000000">Horario</text>
</g>
<!-- RESTAURANTE_Horario&#45;&#45;RESTAURANTE -->
<g id="edge19" class="edge">
<title>RESTAURANTE_Horario&#45;&#45;RESTAURANTE</title>
<path fill="none" stroke="#000000" d="M231.3273,-940.7959C240.7524,-945.2469 251.3214,-950.5574 260.628,-956 279.3137,-966.9277 299.3347,-980.9431 314.3459,-991.9568"/>
</g>
<!-- RESTAURANTE_Morada -->
<g id="node23" class="node">
<title>RESTAURANTE_Morada</title>
<ellipse fill="#ffffff" stroke="#000000" cx="204.705" cy="-871" rx="31.3766" ry="18"/>
<ellipse fill="none" stroke="#000000" cx="204.705" cy="-871" rx="35.3994" ry="22"/>
<text text-anchor="middle" x="204.705" y="-868.5" font-family="Courier,monospace" font-size="10.00" fill="#000000">Morada</text>
</g>
<!-- RESTAURANTE_Morada&#45;&#45;RESTAURANTE -->
<g id="edge20" class="edge">
<title>RESTAURANTE_Morada&#45;&#45;RESTAURANTE</title>
<path fill="none" stroke="#000000" d="M233.6048,-883.8888C242.8131,-888.7845 252.6674,-894.9151 260.628,-902 290.4518,-928.5432 315.3596,-968.5331 328.3757,-991.6739"/>
</g>
<!-- RESTAURANTE_Morada_Rua -->
<g id="node24" class="node">
<title>RESTAURANTE_Morada_Rua</title>
<ellipse fill="#ffffff" stroke="#000000" cx="56.391" cy="-952" rx="27" ry="18"/>
<text text-anchor="middle" x="56.391" y="-949.5" font-family="Courier,monospace" font-size="10.00" fill="#000000">Rua</text>
</g>
<!-- RESTAURANTE_Morada_Rua&#45;&#45;RESTAURANTE_Morada -->
<g id="edge21" class="edge">
<title>RESTAURANTE_Morada_Rua&#45;&#45;RESTAURANTE_Morada</title>
<path fill="none" stroke="#000000" d="M78.939,-941.9717C89.3854,-937.1315 101.8729,-931.0668 112.782,-925 129.3753,-915.772 132.4711,-911.7185 148.782,-902 158.1276,-896.4316 168.5133,-890.5836 177.7731,-885.4861"/>
</g>
<!-- RESTAURANTE_Morada_Andar -->
<g id="node25" class="node">
<title>RESTAURANTE_Morada_Andar</title>
<ellipse fill="#ffffff" stroke="#000000" cx="56.391" cy="-898" rx="34.9638" ry="18"/>
<text text-anchor="middle" x="56.391" y="-895.5" font-family="Courier,monospace" font-size="10.00" fill="#000000">Andar ?</text>
</g>
<!-- RESTAURANTE_Morada_Andar&#45;&#45;RESTAURANTE_Morada -->
<g id="edge22" class="edge">
<title>RESTAURANTE_Morada_Andar&#45;&#45;RESTAURANTE_Morada</title>
<path fill="none" stroke="#000000" d="M89.3067,-892.0078C113.5435,-887.5956 146.3981,-881.6145 170.8531,-877.1626"/>
</g>
<!-- RESTAURANTE_Morada_Cp -->
<g id="node26" class="node">
<title>RESTAURANTE_Morada_Cp</title>
<ellipse fill="#ffffff" stroke="#000000" cx="56.391" cy="-844" rx="27" ry="18"/>
<text text-anchor="middle" x="56.391" y="-841.5" font-family="Courier,monospace" font-size="10.00" fill="#000000">Cp</text>
</g>
<!-- RESTAURANTE_Morada_Cp&#45;&#45;RESTAURANTE_Morada -->
<g id="edge23" class="edge">
<title>RESTAURANTE_Morada_Cp&#45;&#45;RESTAURANTE_Morada</title>
<path fill="none" stroke="#000000" d="M82.5652,-848.7649C107.0974,-853.2309 143.9073,-859.932 170.7027,-864.81"/>
</g>
<!-- RESTAURANTE_Morada_Localidade -->
<g id="node27" class="node">
<title>RESTAURANTE_Morada_Localidade</title>
<ellipse fill="#ffffff" stroke="#000000" cx="56.391" cy="-790" rx="45.1548" ry="18"/>
<text text-anchor="middle" x="56.391" y="-787.5" font-family="Courier,monospace" font-size="10.00" fill="#000000">Localidade</text>
</g>
<!-- RESTAURANTE_Morada_Localidade&#45;&#45;RESTAURANTE_Morada -->
<g id="edge24" class="edge">
<title>RESTAURANTE_Morada_Localidade&#45;&#45;RESTAURANTE_Morada</title>
<path fill="none" stroke="#000000" d="M86.1854,-803.6873C94.8386,-807.8178 104.253,-812.4634 112.782,-817 135.8228,-829.2554 161.3685,-844.3922 179.6701,-855.5185"/>
</g>
<!-- PRATO -->
<g id="node28" class="node">
<title>PRATO</title>
<polygon fill="#ffffff" stroke="#000000" points="231.705,-1217 177.705,-1217 177.705,-1181 231.705,-1181 231.705,-1217"/>
<text text-anchor="middle" x="204.705" y="-1196.5" font-family="Courier,monospace" font-size="10.00" fill="#000000">PRATO</text>
</g>
<!-- PRATO_IdPra_ -->
<g id="node29" class="node">
<title>PRATO_IdPra_</title>
<ellipse fill="#ffffff" stroke="#000000" cx="56.391" cy="-1280" rx="31.3996" ry="18"/>
<text text-anchor="start" x="37.891" y="-1278.5" font-family="Courier,monospace" text-decoration="underline" font-size="10.00" fill="#000000">IdPra_</text>
</g>
<!-- PRATO_IdPra_&#45;&#45;PRATO -->
<g id="edge25" class="edge">
<title>PRATO_IdPra_&#45;&#45;PRATO</title>
<path fill="none" stroke="#000000" d="M81.0421,-1268.7504C90.9944,-1264.0657 102.528,-1258.4541 112.782,-1253 135.0058,-1241.1792 159.5599,-1226.6777 177.6962,-1215.68"/>
</g>
<!-- PRATO_Nome -->
<g id="node30" class="node">
<title>PRATO_Nome</title>
<ellipse fill="#ffffff" stroke="#000000" cx="56.391" cy="-1226" rx="27" ry="18"/>
<text text-anchor="middle" x="56.391" y="-1223.5" font-family="Courier,monospace" font-size="10.00" fill="#000000">Nome</text>
</g>
<!-- PRATO_Nome&#45;&#45;PRATO -->
<g id="edge26" class="edge">
<title>PRATO_Nome&#45;&#45;PRATO</title>
<path fill="none" stroke="#000000" d="M82.5652,-1221.2351C109.2596,-1216.3755 150.4912,-1208.8694 177.539,-1203.9455"/>
</g>
<!-- PRATO_Preco -->
<g id="node31" class="node">
<title>PRATO_Preco</title>
<ellipse fill="#ffffff" stroke="#000000" cx="56.391" cy="-1172" rx="27.8353" ry="18"/>
<text text-anchor="middle" x="56.391" y="-1169.5" font-family="Courier,monospace" font-size="10.00" fill="#000000">Preco</text>
</g>
<!-- PRATO_Preco&#45;&#45;PRATO -->
<g id="edge27" class="edge">
<title>PRATO_Preco&#45;&#45;PRATO</title>
<path fill="none" stroke="#000000" d="M83.2495,-1176.8895C109.9621,-1181.7524 150.7275,-1189.1736 177.5451,-1194.0556"/>
</g>
<!-- PRATO_Ingredientes -->
<g id="node32" class="node">
<title>PRATO_Ingredientes</title>
<ellipse fill="#ffffff" stroke="#000000" cx="56.391" cy="-1114" rx="52.2899" ry="18"/>
<ellipse fill="none" stroke="#000000" cx="56.391" cy="-1114" rx="56.2822" ry="22"/>
<text text-anchor="middle" x="56.391" y="-1111.5" font-family="Courier,monospace" font-size="10.00" fill="#000000">Ingredientes</text>
</g>
<!-- PRATO_Ingredientes&#45;&#45;PRATO -->
<g id="edge28" class="edge">
<title>PRATO_Ingredientes&#45;&#45;PRATO</title>
<path fill="none" stroke="#000000" d="M90.2418,-1131.5976C97.7795,-1135.7938 105.6478,-1140.3963 112.782,-1145 129.5868,-1155.8443 131.6966,-1161.6034 148.782,-1172 157.9,-1177.5483 168.3291,-1182.8433 177.6917,-1187.251"/>
</g>
</g>
</svg>
