<?xml version="1.0" encoding="UTF-8" standalone="no"?>
<!DOCTYPE svg PUBLIC "-//W3C//DTD SVG 1.1//EN"
 "http://www.w3.org/Graphics/SVG/1.1/DTD/svg11.dtd">
<!-- Generated by graphviz version 2.40.1 (20161225.0304)
 -->
<!-- Title: %3 Pages: 1 -->
<svg width="1511pt" height="602pt"
 viewBox="0.00 0.00 1510.78 602.00" xmlns="http://www.w3.org/2000/svg" xmlns:xlink="http://www.w3.org/1999/xlink">
<g id="graph0" class="graph" transform="scale(1 1) rotate(0) translate(4 598)">
<title>%3</title>
<polygon fill="#ffffff" stroke="transparent" points="-4,4 -4,-598 1506.7769,-598 1506.7769,4 -4,4"/>
<!-- EMPREGADO -->
<g id="node1" class="node">
<title>EMPREGADO</title>
<polygon fill="#ffffff" stroke="#000000" points="205.718,-405 134.718,-405 134.718,-369 205.718,-369 205.718,-405"/>
<text text-anchor="middle" x="170.218" y="-384.5" font-family="Courier,monospace" font-size="10.00" fill="#000000">EMPREGADO</text>
</g>
<!-- TRABALHA_PARA -->
<g id="node33" class="node">
<title>TRABALHA_PARA</title>
<polygon fill="#ffffff" stroke="#000000" points="327.8051,-405 248.6309,-387 327.8051,-369 406.9793,-387 327.8051,-405"/>
<text text-anchor="middle" x="327.8051" y="-384.5" font-family="Courier,monospace" font-size="10.00" fill="#000000">TRABALHA_PARA</text>
</g>
<!-- EMPREGADO&#45;&#45;TRABALHA_PARA -->
<g id="edge29" class="edge">
<title>EMPREGADO&#45;&#45;TRABALHA_PARA</title>
<path fill="none" stroke="#000000" d="M205.977,-387C218.6904,-387 233.56,-387 248.4561,-387"/>
<text text-anchor="middle" x="227.218" y="-390" font-family="Courier,monospace" font-size="10.00" fill="#000000">1</text>
</g>
<!-- TRABALHA_NO -->
<g id="node34" class="node">
<title>TRABALHA_NO</title>
<polygon fill="#ffffff" stroke="#000000" points="493.9892,-497 424.7949,-479 493.9892,-461 563.1835,-479 493.9892,-497"/>
<text text-anchor="middle" x="493.9892" y="-476.5" font-family="Courier,monospace" font-size="10.00" fill="#000000">TRABALHA_NO</text>
</g>
<!-- EMPREGADO&#45;&#45;TRABALHA_NO -->
<g id="edge31" class="edge">
<title>EMPREGADO&#45;&#45;TRABALHA_NO</title>
<path fill="none" stroke="#000000" d="M206.6524,-398.0259C219.9724,-402.6732 235.2913,-407.8281 249.2998,-412.0865 322.9651,-434.4866 410.4979,-456.6267 458.4914,-468.3886"/>
<path fill="none" stroke="transparent" d="M205.9936,-399.9142C219.3345,-404.5688 234.6535,-409.7237 248.718,-414 322.4747,-436.4255 410.0075,-458.5657 458.0154,-470.3312"/>
<path fill="none" stroke="#000000" d="M205.3348,-401.8026C218.6967,-406.4643 234.0156,-411.6193 248.1363,-415.9135 321.9843,-438.3645 409.5171,-460.5046 457.5393,-472.2737"/>
<text text-anchor="middle" x="227.218" y="-411" font-family="Courier,monospace" font-size="10.00" fill="#000000">N</text>
</g>
<!-- EMPREGADO_IdEmp -->
<g id="node2" class="node">
<title>EMPREGADO_IdEmp</title>
<ellipse fill="#ffffff" stroke="#000000" cx="48.859" cy="-576" rx="27.8353" ry="18"/>
<text text-anchor="start" x="33.359" y="-574.5" font-family="Courier,monospace" text-decoration="underline" font-size="10.00" fill="#000000">IdEmp</text>
</g>
<!-- EMPREGADO_IdEmp&#45;&#45;EMPREGADO -->
<g id="edge1" class="edge">
<title>EMPREGADO_IdEmp&#45;&#45;EMPREGADO</title>
<path fill="none" stroke="#000000" d="M72.8645,-566.5953C81.5541,-562.2675 90.8967,-556.4202 97.718,-549 137.3398,-505.9 158.0841,-437.5401 166.1468,-405.1568"/>
</g>
<!-- EMPREGADO_Nome -->
<g id="node3" class="node">
<title>EMPREGADO_Nome</title>
<ellipse fill="#ffffff" stroke="#000000" cx="48.859" cy="-522" rx="27" ry="18"/>
<text text-anchor="middle" x="48.859" y="-519.5" font-family="Courier,monospace" font-size="10.00" fill="#000000">Nome</text>
</g>
<!-- EMPREGADO_Nome&#45;&#45;EMPREGADO -->
<g id="edge2" class="edge">
<title>EMPREGADO_Nome&#45;&#45;EMPREGADO</title>
<path fill="none" stroke="#000000" d="M71.727,-512.2057C80.4692,-507.7663 90.1472,-501.9438 97.718,-495 126.5104,-468.5926 149.4974,-428.555 161.3765,-405.369"/>
</g>
<!-- EMPREGADO_Funcao -->
<g id="node4" class="node">
<title>EMPREGADO_Funcao</title>
<ellipse fill="#ffffff" stroke="#000000" cx="48.859" cy="-468" rx="31.3996" ry="18"/>
<text text-anchor="middle" x="48.859" y="-465.5" font-family="Courier,monospace" font-size="10.00" fill="#000000">Funcao</text>
</g>
<!-- EMPREGADO_Funcao&#45;&#45;EMPREGADO -->
<g id="edge3" class="edge">
<title>EMPREGADO_Funcao&#45;&#45;EMPREGADO</title>
<path fill="none" stroke="#000000" d="M72.1017,-455.9899C80.3347,-451.5187 89.5719,-446.2503 97.718,-441 114.9994,-429.8618 133.579,-415.9826 147.6029,-405.0843"/>
</g>
<!-- EMPREGADO_Ordenado -->
<g id="node5" class="node">
<title>EMPREGADO_Ordenado</title>
<ellipse fill="#ffffff" stroke="#000000" cx="48.859" cy="-414" rx="38.0276" ry="18"/>
<text text-anchor="middle" x="48.859" y="-411.5" font-family="Courier,monospace" font-size="10.00" fill="#000000">Ordenado</text>
</g>
<!-- EMPREGADO_Ordenado&#45;&#45;EMPREGADO -->
<g id="edge4" class="edge">
<title>EMPREGADO_Ordenado&#45;&#45;EMPREGADO</title>
<path fill="none" stroke="#000000" d="M83.6357,-406.2629C99.6052,-402.71 118.5214,-398.5015 134.5931,-394.9258"/>
</g>
<!-- EMPREGADO_Restaurante -->
<g id="node6" class="node">
<title>EMPREGADO_Restaurante</title>
<ellipse fill="#ffffff" stroke="#000000" cx="48.859" cy="-360" rx="48.7185" ry="18"/>
<text text-anchor="middle" x="48.859" y="-357.5" font-family="Courier,monospace" font-size="10.00" fill="#000000">Restaurante</text>
</g>
<!-- EMPREGADO_Restaurante&#45;&#45;EMPREGADO -->
<g id="edge5" class="edge">
<title>EMPREGADO_Restaurante&#45;&#45;EMPREGADO</title>
<path fill="none" stroke="#000000" d="M90.9639,-369.3675C105.2036,-372.5356 120.9535,-376.0396 134.6366,-379.0838"/>
</g>
<!-- EMPREGADO_DataNasc -->
<g id="node7" class="node">
<title>EMPREGADO_DataNasc</title>
<ellipse fill="#ffffff" stroke="#000000" cx="48.859" cy="-306" rx="38.0276" ry="18"/>
<text text-anchor="middle" x="48.859" y="-303.5" font-family="Courier,monospace" font-size="10.00" fill="#000000">DataNasc</text>
</g>
<!-- EMPREGADO_DataNasc&#45;&#45;EMPREGADO -->
<g id="edge6" class="edge">
<title>EMPREGADO_DataNasc&#45;&#45;EMPREGADO</title>
<path fill="none" stroke="#000000" d="M74.5997,-319.3745C82.1712,-323.5348 90.3866,-328.2747 97.718,-333 114.9994,-344.1382 133.579,-358.0174 147.6029,-368.9157"/>
</g>
<!-- EMPREGADO_Idade -->
<g id="node8" class="node">
<title>EMPREGADO_Idade</title>
<ellipse fill="none" stroke="#000000" stroke-dasharray="5,2" cx="48.859" cy="-252" rx="27.8353" ry="18"/>
<text text-anchor="middle" x="48.859" y="-249.5" font-family="Courier,monospace" font-size="10.00" fill="#000000">Idade</text>
</g>
<!-- EMPREGADO_Idade&#45;&#45;EMPREGADO -->
<g id="edge7" class="edge">
<title>EMPREGADO_Idade&#45;&#45;EMPREGADO</title>
<path fill="none" stroke="#000000" d="M72.2228,-262.0471C80.8336,-266.4538 90.29,-272.1872 97.718,-279 126.5104,-305.4074 149.4974,-345.445 161.3765,-368.631"/>
</g>
<!-- EMPREGADO_Cliente -->
<g id="node9" class="node">
<title>EMPREGADO_Cliente</title>
<ellipse fill="#ffffff" stroke="#000000" cx="48.859" cy="-194" rx="34.9396" ry="18"/>
<ellipse fill="none" stroke="#000000" cx="48.859" cy="-194" rx="38.9636" ry="22"/>
<text text-anchor="middle" x="48.859" y="-191.5" font-family="Courier,monospace" font-size="10.00" fill="#000000">Cliente</text>
</g>
<!-- EMPREGADO_Cliente&#45;&#45;EMPREGADO -->
<g id="edge8" class="edge">
<title>EMPREGADO_Cliente&#45;&#45;EMPREGADO</title>
<path fill="none" stroke="#000000" d="M78.1675,-208.6972C85.2099,-213.218 92.2635,-218.6937 97.718,-225 135.9164,-269.1629 157.2894,-336.7114 165.8158,-368.8249"/>
</g>
<!-- CLIENTE -->
<g id="node10" class="node">
<title>CLIENTE</title>
<polygon fill="#ffffff" stroke="#000000" points="640.0863,-243 581.0863,-243 581.0863,-207 640.0863,-207 640.0863,-243"/>
<text text-anchor="middle" x="610.5863" y="-222.5" font-family="Courier,monospace" font-size="10.00" fill="#000000">CLIENTE</text>
</g>
<!-- VAI_A -->
<g id="node35" class="node">
<title>VAI_A</title>
<polygon fill="#ffffff" stroke="#000000" points="852.9956,-61 813.7406,-43 852.9956,-25 892.2505,-43 852.9956,-61"/>
<text text-anchor="middle" x="852.9956" y="-40.5" font-family="Courier,monospace" font-size="10.00" fill="#000000">VAI_A</text>
</g>
<!-- CLIENTE&#45;&#45;VAI_A -->
<g id="edge33" class="edge">
<title>CLIENTE&#45;&#45;VAI_A</title>
<path fill="none" stroke="#000000" d="M610.6063,-206.5226C615.5538,-171.2446 631.7046,-94.3573 681.9138,-57.3798 725.2057,-26.6048 789.1809,-30.29 825.6381,-35.6835"/>
<path fill="none" stroke="transparent" d="M612.587,-206.8001C617.5111,-171.6558 633.6619,-94.7684 683.0863,-59 725.0907,-28.6015 789.0659,-32.2866 825.345,-37.6619"/>
<path fill="none" stroke="#000000" d="M614.5676,-207.0776C619.4683,-172.0669 635.6191,-95.1795 684.2589,-60.6202 724.9757,-30.5982 788.9509,-34.2833 825.0519,-39.6403"/>
<text text-anchor="middle" x="661.5863" y="-87" font-family="Courier,monospace" font-size="10.00" fill="#000000">N</text>
</g>
<!-- PEDE -->
<g id="node38" class="node">
<title>PEDE</title>
<polygon fill="#ffffff" stroke="#000000" points="739.4773,-266 705.2122,-248 739.4773,-230 773.7424,-248 739.4773,-266"/>
<text text-anchor="middle" x="739.4773" y="-245.5" font-family="Courier,monospace" font-size="10.00" fill="#000000">PEDE</text>
</g>
<!-- CLIENTE&#45;&#45;PEDE -->
<g id="edge39" class="edge">
<title>CLIENTE&#45;&#45;PEDE</title>
<path fill="none" stroke="#000000" d="M640.5079,-228.3078C662.6559,-232.26 692.6682,-237.6155 713.8874,-241.402"/>
<path fill="none" stroke="transparent" d="M640.1565,-230.2767C662.3046,-234.2289 692.3169,-239.5844 713.536,-243.3709"/>
<path fill="none" stroke="#000000" d="M639.8052,-232.2456C661.9532,-236.1978 691.9655,-241.5533 713.1847,-245.3398"/>
<text text-anchor="middle" x="661.5863" y="-237" font-family="Courier,monospace" font-size="10.00" fill="#000000">1</text>
</g>
<!-- CLIENTE_IdCli -->
<g id="node11" class="node">
<title>CLIENTE_IdCli</title>
<ellipse fill="#ffffff" stroke="#000000" cx="327.8051" cy="-333" rx="27.8353" ry="18"/>
<text text-anchor="start" x="312.3051" y="-331.5" font-family="Courier,monospace" text-decoration="underline" font-size="10.00" fill="#000000">IdCli</text>
</g>
<!-- CLIENTE_IdCli&#45;&#45;CLIENTE -->
<g id="edge9" class="edge">
<title>CLIENTE_IdCli&#45;&#45;CLIENTE</title>
<path fill="none" stroke="#000000" d="M354.9473,-328.9472C400.2367,-321.3771 493.142,-302.3633 563.0863,-265 573.7367,-259.3107 584.1598,-250.9433 592.516,-243.3301"/>
</g>
<!-- CLIENTE_Nome -->
<g id="node12" class="node">
<title>CLIENTE_Nome</title>
<ellipse fill="#ffffff" stroke="#000000" cx="327.8051" cy="-279" rx="27" ry="18"/>
<text text-anchor="middle" x="327.8051" y="-276.5" font-family="Courier,monospace" font-size="10.00" fill="#000000">Nome</text>
</g>
<!-- CLIENTE_Nome&#45;&#45;CLIENTE -->
<g id="edge10" class="edge">
<title>CLIENTE_Nome&#45;&#45;CLIENTE</title>
<path fill="none" stroke="#000000" d="M354.4719,-275.5143C398.3081,-269.5506 488.2077,-256.3358 563.0863,-239 568.9493,-237.6426 575.1575,-235.9808 581.0837,-234.2825"/>
</g>
<!-- CLIENTE_Localidade -->
<g id="node13" class="node">
<title>CLIENTE_Localidade</title>
<ellipse fill="#ffffff" stroke="#000000" cx="327.8051" cy="-225" rx="52.2822" ry="18"/>
<text text-anchor="middle" x="327.8051" y="-222.5" font-family="Courier,monospace" font-size="10.00" fill="#000000">Localidade ?</text>
</g>
<!-- CLIENTE_Localidade&#45;&#45;CLIENTE -->
<g id="edge11" class="edge">
<title>CLIENTE_Localidade&#45;&#45;CLIENTE</title>
<path fill="none" stroke="#000000" d="M380.3313,-225C439.4289,-225 533.3585,-225 580.9144,-225"/>
</g>
<!-- CLIENTE_Telemovel -->
<g id="node14" class="node">
<title>CLIENTE_Telemovel</title>
<ellipse fill="#ffffff" stroke="#000000" cx="327.8051" cy="-167" rx="41.6089" ry="18"/>
<ellipse fill="none" stroke="#000000" cx="327.8051" cy="-167" rx="45.5911" ry="22"/>
<text text-anchor="middle" x="327.8051" y="-164.5" font-family="Courier,monospace" font-size="10.00" fill="#000000">Telemovel</text>
</g>
<!-- CLIENTE_Telemovel&#45;&#45;CLIENTE -->
<g id="edge12" class="edge">
<title>CLIENTE_Telemovel&#45;&#45;CLIENTE</title>
<path fill="none" stroke="#000000" d="M370.1403,-175.6832C428.0726,-187.5654 530.5909,-208.5925 580.9663,-218.9248"/>
</g>
<!-- CLIENTE_CRefeicao -->
<g id="node15" class="node">
<title>CLIENTE_CRefeicao</title>
<ellipse fill="#ffffff" stroke="#000000" cx="327.8051" cy="-109" rx="41.5911" ry="18"/>
<text text-anchor="middle" x="327.8051" y="-106.5" font-family="Courier,monospace" font-size="10.00" fill="#000000">CRefeicao</text>
</g>
<!-- CLIENTE_CRefeicao&#45;&#45;CLIENTE -->
<g id="edge13" class="edge">
<title>CLIENTE_CRefeicao&#45;&#45;CLIENTE</title>
<path fill="none" stroke="#000000" d="M366.3932,-116.2913C414.6503,-126.5056 498.7415,-147.9799 563.0863,-184 573.9227,-190.0662 584.5273,-198.8601 592.9577,-206.7494"/>
</g>
<!-- CLIENTE_Restaurante -->
<g id="node16" class="node">
<title>CLIENTE_Restaurante</title>
<ellipse fill="#ffffff" stroke="#000000" cx="327.8051" cy="-55" rx="48.7185" ry="18"/>
<text text-anchor="middle" x="327.8051" y="-52.5" font-family="Courier,monospace" font-size="10.00" fill="#000000">Restaurante</text>
</g>
<!-- CLIENTE_Restaurante&#45;&#45;CLIENTE -->
<g id="edge14" class="edge">
<title>CLIENTE_Restaurante&#45;&#45;CLIENTE</title>
<path fill="none" stroke="#000000" d="M376.0101,-58.7734C427.7366,-65.1467 509.6473,-82.2402 563.0863,-128 587.4414,-148.8553 600.4533,-185.1289 606.409,-206.9176"/>
</g>
<!-- RESTAURANTE -->
<g id="node17" class="node">
<title>RESTAURANTE</title>
<polygon fill="#ffffff" stroke="#000000" points="1281.6229,-275 1198.6229,-275 1198.6229,-239 1281.6229,-239 1281.6229,-275"/>
<text text-anchor="middle" x="1240.1229" y="-254.5" font-family="Courier,monospace" font-size="10.00" fill="#000000">RESTAURANTE</text>
</g>
<!-- RESPONSAVEL_POR -->
<g id="node36" class="node">
<title>RESPONSAVEL_POR</title>
<polygon fill="#ffffff" stroke="#000000" points="1413.6999,-36 1324.5459,-18 1413.6999,0 1502.8539,-18 1413.6999,-36"/>
<text text-anchor="middle" x="1413.6999" y="-15.5" font-family="Courier,monospace" font-size="10.00" fill="#000000">RESPONSAVEL_POR</text>
</g>
<!-- RESTAURANTE&#45;&#45;RESPONSAVEL_POR -->
<g id="edge35" class="edge">
<title>RESTAURANTE&#45;&#45;RESPONSAVEL_POR</title>
<path fill="none" stroke="#000000" d="M1251.8367,-237.4676C1284.7816,-192.1055 1369.5984,-75.3203 1400.5536,-32.6978"/>
<path fill="none" stroke="transparent" d="M1253.455,-238.6429C1286.3998,-193.2808 1371.2167,-76.4956 1402.1719,-33.8731"/>
<path fill="none" stroke="#000000" d="M1255.0732,-239.8182C1288.0181,-194.4561 1372.8349,-77.6708 1403.7901,-35.0483"/>
<text text-anchor="middle" x="1303.1229" y="-176" font-family="Courier,monospace" font-size="10.00" fill="#000000">1</text>
</g>
<!-- RESTAURANTE_IdRes_ -->
<g id="node18" class="node">
<title>RESTAURANTE_IdRes_</title>
<ellipse fill="#ffffff" stroke="#000000" cx="1099.6999" cy="-446" rx="31.3996" ry="18"/>
<text text-anchor="start" x="1081.1999" y="-444.5" font-family="Courier,monospace" text-decoration="underline" font-size="10.00" fill="#000000">IdRes_</text>
</g>
<!-- RESTAURANTE_IdRes_&#45;&#45;RESTAURANTE -->
<g id="edge15" class="edge">
<title>RESTAURANTE_IdRes_&#45;&#45;RESTAURANTE</title>
<path fill="none" stroke="#000000" d="M1126.9193,-437.0019C1136.8337,-432.7241 1147.5726,-426.8046 1155.6229,-419 1199.0093,-376.9375 1224.616,-307.7691 1234.8792,-275.1279"/>
</g>
<!-- RESTAURANTE_Nome -->
<g id="node19" class="node">
<title>RESTAURANTE_Nome</title>
<ellipse fill="#ffffff" stroke="#000000" cx="1099.6999" cy="-392" rx="27" ry="18"/>
<text text-anchor="middle" x="1099.6999" y="-389.5" font-family="Courier,monospace" font-size="10.00" fill="#000000">Nome</text>
</g>
<!-- RESTAURANTE_Nome&#45;&#45;RESTAURANTE -->
<g id="edge16" class="edge">
<title>RESTAURANTE_Nome&#45;&#45;RESTAURANTE</title>
<path fill="none" stroke="#000000" d="M1123.6746,-383.2938C1134.1296,-378.8012 1146.1372,-372.6447 1155.6229,-365 1187.8766,-339.0063 1215.3223,-298.4545 1229.5955,-275.1429"/>
</g>
<!-- RESTAURANTE_Responsavel -->
<g id="node20" class="node">
<title>RESTAURANTE_Responsavel</title>
<ellipse fill="#ffffff" stroke="#000000" cx="1099.6999" cy="-338" rx="48.7185" ry="18"/>
<text text-anchor="middle" x="1099.6999" y="-335.5" font-family="Courier,monospace" font-size="10.00" fill="#000000">Responsavel</text>
</g>
<!-- RESTAURANTE_Responsavel&#45;&#45;RESTAURANTE -->
<g id="edge17" class="edge">
<title>RESTAURANTE_Responsavel&#45;&#45;RESTAURANTE</title>
<path fill="none" stroke="#000000" d="M1130.5112,-323.933C1138.7684,-319.9448 1147.6216,-315.4674 1155.6229,-311 1175.5362,-299.8817 1197.1963,-286.0021 1213.6011,-275.0985"/>
</g>
<!-- RESTAURANTE_Especialidade -->
<g id="node21" class="node">
<title>RESTAURANTE_Especialidade</title>
<ellipse fill="#ffffff" stroke="#000000" cx="1099.6999" cy="-284" rx="55.8461" ry="18"/>
<text text-anchor="middle" x="1099.6999" y="-281.5" font-family="Courier,monospace" font-size="10.00" fill="#000000">Especialidade</text>
</g>
<!-- RESTAURANTE_Especialidade&#45;&#45;RESTAURANTE -->
<g id="edge18" class="edge">
<title>RESTAURANTE_Especialidade&#45;&#45;RESTAURANTE</title>
<path fill="none" stroke="#000000" d="M1148.0256,-274.7081C1164.3685,-271.5658 1182.4692,-268.0854 1198.2677,-265.0478"/>
</g>
<!-- RESTAURANTE_Horario -->
<g id="node22" class="node">
<title>RESTAURANTE_Horario</title>
<ellipse fill="#ffffff" stroke="#000000" cx="1099.6999" cy="-230" rx="34.9638" ry="18"/>
<text text-anchor="middle" x="1099.6999" y="-227.5" font-family="Courier,monospace" font-size="10.00" fill="#000000">Horario</text>
</g>
<!-- RESTAURANTE_Horario&#45;&#45;RESTAURANTE -->
<g id="edge19" class="edge">
<title>RESTAURANTE_Horario&#45;&#45;RESTAURANTE</title>
<path fill="none" stroke="#000000" d="M1132.2687,-236.2622C1151.9567,-240.0477 1177.251,-244.9112 1198.3953,-248.9768"/>
</g>
<!-- RESTAURANTE_Morada -->
<g id="node23" class="node">
<title>RESTAURANTE_Morada</title>
<ellipse fill="#ffffff" stroke="#000000" cx="1099.6999" cy="-172" rx="31.3766" ry="18"/>
<ellipse fill="none" stroke="#000000" cx="1099.6999" cy="-172" rx="35.3994" ry="22"/>
<text text-anchor="middle" x="1099.6999" y="-169.5" font-family="Courier,monospace" font-size="10.00" fill="#000000">Morada</text>
</g>
<!-- RESTAURANTE_Morada&#45;&#45;RESTAURANTE -->
<g id="edge20" class="edge">
<title>RESTAURANTE_Morada&#45;&#45;RESTAURANTE</title>
<path fill="none" stroke="#000000" d="M1126.6322,-186.4855C1135.8921,-191.583 1146.2776,-197.4311 1155.6229,-203 1174.9159,-214.4968 1196.2215,-228.1187 1212.6125,-238.8048"/>
</g>
<!-- RESTAURANTE_Morada_Rua -->
<g id="node24" class="node">
<title>RESTAURANTE_Morada_Rua</title>
<ellipse fill="#ffffff" stroke="#000000" cx="955.4499" cy="-171" rx="27" ry="18"/>
<text text-anchor="middle" x="955.4499" y="-168.5" font-family="Courier,monospace" font-size="10.00" fill="#000000">Rua</text>
</g>
<!-- RESTAURANTE_Morada_Rua&#45;&#45;RESTAURANTE_Morada -->
<g id="edge21" class="edge">
<title>RESTAURANTE_Morada_Rua&#45;&#45;RESTAURANTE_Morada</title>
<path fill="none" stroke="#000000" d="M982.5822,-171.1881C1005.7602,-171.3488 1039.2597,-171.581 1064.4989,-171.756"/>
</g>
<!-- RESTAURANTE_Morada_Andar -->
<g id="node25" class="node">
<title>RESTAURANTE_Morada_Andar</title>
<ellipse fill="#ffffff" stroke="#000000" cx="955.4499" cy="-333" rx="34.9638" ry="18"/>
<text text-anchor="middle" x="955.4499" y="-330.5" font-family="Courier,monospace" font-size="10.00" fill="#000000">Andar ?</text>
</g>
<!-- RESTAURANTE_Morada_Andar&#45;&#45;RESTAURANTE_Morada -->
<g id="edge22" class="edge">
<title>RESTAURANTE_Morada_Andar&#45;&#45;RESTAURANTE_Morada</title>
<path fill="none" stroke="#000000" d="M982.0393,-320.9661C988.8063,-316.9501 995.6153,-311.9505 1000.777,-306 1017.0296,-287.2634 1027.2353,-221.4819 1043.777,-203 1050.8841,-195.0593 1060.525,-188.7147 1069.8,-183.8859"/>
</g>
<!-- RESTAURANTE_Morada_Cp -->
<g id="node26" class="node">
<title>RESTAURANTE_Morada_Cp</title>
<ellipse fill="#ffffff" stroke="#000000" cx="955.4499" cy="-279" rx="27" ry="18"/>
<text text-anchor="middle" x="955.4499" y="-276.5" font-family="Courier,monospace" font-size="10.00" fill="#000000">Cp</text>
</g>
<!-- RESTAURANTE_Morada_Cp&#45;&#45;RESTAURANTE_Morada -->
<g id="edge23" class="edge">
<title>RESTAURANTE_Morada_Cp&#45;&#45;RESTAURANTE_Morada</title>
<path fill="none" stroke="#000000" d="M977.1262,-267.9299C984.9398,-263.4749 993.5945,-257.9749 1000.777,-252 1023.0515,-233.4703 1021.2172,-221.1815 1043.777,-203 1052.1609,-196.2432 1062.2202,-190.1561 1071.4816,-185.2013"/>
</g>
<!-- RESTAURANTE_Morada_Localidade -->
<g id="node27" class="node">
<title>RESTAURANTE_Morada_Localidade</title>
<ellipse fill="#ffffff" stroke="#000000" cx="955.4499" cy="-225" rx="45.1548" ry="18"/>
<text text-anchor="middle" x="955.4499" y="-222.5" font-family="Courier,monospace" font-size="10.00" fill="#000000">Localidade</text>
</g>
<!-- RESTAURANTE_Morada_Localidade&#45;&#45;RESTAURANTE_Morada -->
<g id="edge24" class="edge">
<title>RESTAURANTE_Morada_Localidade&#45;&#45;RESTAURANTE_Morada</title>
<path fill="none" stroke="#000000" d="M988.9063,-212.7075C1013.0426,-203.8394 1045.3813,-191.9576 1068.8874,-183.3211"/>
</g>
<!-- PRATO -->
<g id="node28" class="node">
<title>PRATO</title>
<polygon fill="#ffffff" stroke="#000000" points="982.4499,-135 928.4499,-135 928.4499,-99 982.4499,-99 982.4499,-135"/>
<text text-anchor="middle" x="955.4499" y="-114.5" font-family="Courier,monospace" font-size="10.00" fill="#000000">PRATO</text>
</g>
<!-- PERTENCE -->
<g id="node37" class="node">
<title>PERTENCE</title>
<polygon fill="#ffffff" stroke="#000000" points="1099.6999,-132 1045.4753,-114 1099.6999,-96 1153.9245,-114 1099.6999,-132"/>
<text text-anchor="middle" x="1099.6999" y="-111.5" font-family="Courier,monospace" font-size="10.00" fill="#000000">PERTENCE</text>
</g>
<!-- PRATO&#45;&#45;PERTENCE -->
<g id="edge37" class="edge">
<title>PRATO&#45;&#45;PERTENCE</title>
<path fill="none" stroke="#000000" d="M982.5406,-114.4362C1001.0667,-114.0509 1026.1869,-113.5284 1048.4125,-113.0662"/>
<path fill="none" stroke="transparent" d="M982.5822,-116.4357C1001.1083,-116.0504 1026.2285,-115.528 1048.4541,-115.0658"/>
<path fill="none" stroke="#000000" d="M982.6238,-118.4353C1001.1499,-118.05 1026.2701,-117.5276 1048.4957,-117.0653"/>
<text text-anchor="middle" x="1022.277" y="-119" font-family="Courier,monospace" font-size="10.00" fill="#000000">M</text>
</g>
<!-- PRATO_IdPra_ -->
<g id="node29" class="node">
<title>PRATO_IdPra_</title>
<ellipse fill="#ffffff" stroke="#000000" cx="739.4773" cy="-194" rx="31.3996" ry="18"/>
<text text-anchor="start" x="720.9773" y="-192.5" font-family="Courier,monospace" text-decoration="underline" font-size="10.00" fill="#000000">IdPra_</text>
</g>
<!-- PRATO_IdPra_&#45;&#45;PRATO -->
<g id="edge25" class="edge">
<title>PRATO_IdPra_&#45;&#45;PRATO</title>
<path fill="none" stroke="#000000" d="M766.9139,-185.0908C797.5767,-175.0327 848.6323,-157.9819 892.1229,-142 904.105,-137.5968 917.2481,-132.4593 928.44,-127.9908"/>
</g>
<!-- PRATO_Nome -->
<g id="node30" class="node">
<title>PRATO_Nome</title>
<ellipse fill="#ffffff" stroke="#000000" cx="739.4773" cy="-140" rx="27" ry="18"/>
<text text-anchor="middle" x="739.4773" y="-137.5" font-family="Courier,monospace" font-size="10.00" fill="#000000">Nome</text>
</g>
<!-- PRATO_Nome&#45;&#45;PRATO -->
<g id="edge26" class="edge">
<title>PRATO_Nome&#45;&#45;PRATO</title>
<path fill="none" stroke="#000000" d="M766.3937,-137.1335C807.7798,-132.7261 886.6047,-124.3317 928.1943,-119.9026"/>
</g>
<!-- PRATO_Preco -->
<g id="node31" class="node">
<title>PRATO_Preco</title>
<ellipse fill="#ffffff" stroke="#000000" cx="739.4773" cy="-86" rx="27.8353" ry="18"/>
<text text-anchor="middle" x="739.4773" y="-83.5" font-family="Courier,monospace" font-size="10.00" fill="#000000">Preco</text>
</g>
<!-- PRATO_Preco&#45;&#45;PRATO -->
<g id="edge27" class="edge">
<title>PRATO_Preco&#45;&#45;PRATO</title>
<path fill="none" stroke="#000000" d="M766.8304,-89.9262C808.3737,-95.8892 886.9079,-107.1617 928.3189,-113.1057"/>
</g>
<!-- PRATO_Ingredientes -->
<g id="node32" class="node">
<title>PRATO_Ingredientes</title>
<ellipse fill="#ffffff" stroke="#000000" cx="739.4773" cy="-306" rx="52.2899" ry="18"/>
<ellipse fill="none" stroke="#000000" cx="739.4773" cy="-306" rx="56.2822" ry="22"/>
<text text-anchor="middle" x="739.4773" y="-303.5" font-family="Courier,monospace" font-size="10.00" fill="#000000">Ingredientes</text>
</g>
<!-- PRATO_Ingredientes&#45;&#45;PRATO -->
<g id="edge28" class="edge">
<title>PRATO_Ingredientes&#45;&#45;PRATO</title>
<path fill="none" stroke="#000000" d="M786.2074,-293.5799C820.6568,-281.9938 865.912,-261.2373 892.1229,-227 915.0681,-197.0283 888.0815,-174.6426 910.1229,-144 914.7226,-137.6052 921.3473,-132.4599 928.1172,-128.4462"/>
</g>
<!-- TRABALHA_PARA&#45;&#45;CLIENTE -->
<g id="edge30" class="edge">
<title>TRABALHA_PARA&#45;&#45;CLIENTE</title>
<path fill="none" stroke="#000000" d="M375.4368,-377.7635C426.4755,-367.9614 507.5658,-346.1736 561.8181,-301.4535 580.8041,-286.0933 594.4066,-259.8757 601.8523,-242.438"/>
<path fill="none" stroke="transparent" d="M375.8142,-379.7276C426.9944,-369.8929 508.0847,-348.1051 563.0863,-303 582.5793,-287.0144 596.1819,-260.7968 603.6914,-243.2239"/>
<path fill="none" stroke="#000000" d="M376.1916,-381.6916C427.5134,-371.8244 508.6037,-350.0366 564.3545,-304.5465 584.3546,-287.9354 597.9571,-261.7179 605.5305,-244.0098"/>
<text text-anchor="middle" x="493.9892" y="-371" font-family="Courier,monospace" font-size="10.00" fill="#000000">N</text>
</g>
<!-- TRABALHA_NO&#45;&#45;RESTAURANTE -->
<g id="edge32" class="edge">
<title>TRABALHA_NO&#45;&#45;RESTAURANTE</title>
<path fill="none" stroke="#000000" d="M541.8003,-482.675C575.2627,-486.1743 621.1867,-490.0069 661.5863,-490 661.5863,-490 661.5863,-490 1099.6999,-490 1125.7888,-490.0065 1136.4839,-489.1421 1154.2412,-471.5541 1212.0263,-416.8552 1230.7983,-315.9528 1236.1775,-274.9295"/>
<path fill="none" stroke="transparent" d="M541.5923,-484.6642C575.0964,-488.1674 621.0204,-492 661.5863,-492 661.5863,-492 661.5863,-492 1099.6999,-492 1125.9499,-492 1136.645,-491.1356 1155.6229,-473 1213.9926,-417.221 1232.7646,-316.3186 1238.1605,-275.1897"/>
<path fill="none" stroke="#000000" d="M541.3843,-486.6533C574.93,-490.1605 620.8541,-493.9931 661.5863,-494 661.5863,-494 661.5863,-494 1099.6999,-494 1126.1111,-493.9935 1136.8061,-493.1291 1157.0047,-474.4459 1215.9589,-417.5868 1234.7308,-316.6844 1240.1435,-275.4498"/>
<text text-anchor="middle" x="852.9956" y="-495" font-family="Courier,monospace" font-size="10.00" fill="#000000">1</text>
</g>
<!-- VAI_A&#45;&#45;RESTAURANTE -->
<g id="edge34" class="edge">
<title>VAI_A&#45;&#45;RESTAURANTE</title>
<path fill="none" stroke="#000000" d="M883.2093,-36.8218C942.0146,-30.4348 1072.3399,-24.7315 1156.7963,-85.3804 1209.4638,-124.0738 1231.2701,-202.6664 1238.7813,-238.3806"/>
<path fill="none" stroke="transparent" d="M883.4254,-38.81C942.102,-32.4328 1072.4274,-26.7296 1155.6229,-87 1207.5366,-124.6085 1229.3429,-203.2012 1236.8241,-238.792"/>
<path fill="none" stroke="#000000" d="M883.6415,-40.7983C942.1895,-34.4309 1072.5148,-28.7276 1154.4496,-88.6196 1205.6094,-125.1432 1227.4157,-203.7359 1234.8669,-239.2034"/>
<text text-anchor="middle" x="1022.277" y="-43" font-family="Courier,monospace" font-size="10.00" fill="#000000">1</text>
</g>
<!-- RESPONSAVEL_POR&#45;&#45;EMPREGADO -->
<g id="edge36" class="edge">
<title>RESPONSAVEL_POR&#45;&#45;EMPREGADO</title>
<path fill="none" stroke="#000000" d="M1361.0223,-10.6089C1326.6726,-6.4166 1280.8262,-2 1240.1229,-2 327.8051,-2 327.8051,-2 327.8051,-2 290.8046,-2 273.5088,-.5326 248.718,-28 202.2317,-79.5053 178.0717,-302.631 171.8562,-368.5781"/>
<text text-anchor="middle" x="852.9956" y="-5" font-family="Courier,monospace" font-size="10.00" fill="#000000">1</text>
</g>
<!-- PERTENCE&#45;&#45;RESTAURANTE -->
<g id="edge38" class="edge">
<title>PERTENCE&#45;&#45;RESTAURANTE</title>
<path fill="none" stroke="#000000" d="M1126.5666,-121.5725C1136.6909,-126.0227 1147.7868,-131.9104 1156.9045,-139.4646 1191.1839,-168.2116 1218.6176,-212.8467 1232.3726,-237.7853"/>
<path fill="none" stroke="transparent" d="M1125.7627,-123.4038C1135.7535,-127.7894 1146.8493,-133.6771 1155.6229,-141 1189.48,-169.2589 1216.9137,-213.894 1230.6212,-238.7511"/>
<path fill="none" stroke="#000000" d="M1124.9588,-125.2352C1134.816,-129.5561 1145.9119,-135.4438 1154.3413,-142.5354 1187.7761,-170.3061 1215.2098,-214.9412 1228.8698,-239.7169"/>
<text text-anchor="middle" x="1177.1229" y="-166" font-family="Courier,monospace" font-size="10.00" fill="#000000">N</text>
</g>
<!-- PEDE&#45;&#45;PRATO -->
<g id="edge40" class="edge">
<title>PEDE&#45;&#45;PRATO</title>
<path fill="none" stroke="#000000" d="M757.8547,-239.4323C768.9229,-234.2148 783.2678,-227.3514 795.8683,-221 839.1004,-199.2084 855.9252,-202.1499 892.1229,-170 902.6311,-160.6668 899.8512,-153.5929 910.1229,-144 915.4782,-138.9985 921.913,-134.4862 928.2295,-130.6459"/>
<text text-anchor="middle" x="852.9956" y="-215" font-family="Courier,monospace" font-size="10.00" fill="#000000">1</text>
</g>
</g>
</svg>
