<?xml version="1.0" encoding="UTF-8" standalone="no"?>
<!DOCTYPE svg PUBLIC "-//W3C//DTD SVG 1.1//EN"
 "http://www.w3.org/Graphics/SVG/1.1/DTD/svg11.dtd">
<!-- Generated by graphviz version 2.40.1 (20161225.0304)
 -->
<!-- Title: %3 Pages: 1 -->
<svg width="1291pt" height="158pt"
 viewBox="0.00 0.00 1291.27 158.00" xmlns="http://www.w3.org/2000/svg" xmlns:xlink="http://www.w3.org/1999/xlink">
<g id="graph0" class="graph" transform="scale(1 1) rotate(0) translate(4 154)">
<title>%3</title>
<polygon fill="#ffffff" stroke="transparent" points="-4,4 -4,-154 1287.2657,-154 1287.2657,4 -4,4"/>
<!-- EMPREGADO -->
<g id="node1" class="node">
<title>EMPREGADO</title>
<polygon fill="#ffffff" stroke="#000000" points="71,-58 0,-58 0,-22 71,-22 71,-58"/>
<text text-anchor="middle" x="35.5" y="-37.5" font-family="Courier,monospace" font-size="10.00" fill="#000000">EMPREGADO</text>
</g>
<!-- TRABALHA_PARA -->
<g id="node5" class="node">
<title>TRABALHA_PARA</title>
<polygon fill="#ffffff" stroke="#000000" points="193.087,-104 113.9129,-86 193.087,-68 272.2612,-86 193.087,-104"/>
<text text-anchor="middle" x="193.087" y="-83.5" font-family="Courier,monospace" font-size="10.00" fill="#000000">TRABALHA_PARA</text>
</g>
<!-- EMPREGADO&#45;&#45;TRABALHA_PARA -->
<g id="edge1" class="edge">
<title>EMPREGADO&#45;&#45;TRABALHA_PARA</title>
<path fill="none" stroke="#000000" d="M71.2589,-50.4381C97.3214,-58.0458 132.4454,-68.2986 158.2829,-75.8406"/>
<text text-anchor="middle" x="92.5" y="-60" font-family="Courier,monospace" font-size="10.00" fill="#000000">1</text>
</g>
<!-- TRABALHA_NO -->
<g id="node6" class="node">
<title>TRABALHA_NO</title>
<polygon fill="#ffffff" stroke="#000000" points="359.2712,-58 290.0768,-40 359.2712,-22 428.4655,-40 359.2712,-58"/>
<text text-anchor="middle" x="359.2712" y="-37.5" font-family="Courier,monospace" font-size="10.00" fill="#000000">TRABALHA_NO</text>
</g>
<!-- EMPREGADO&#45;&#45;TRABALHA_NO -->
<g id="edge3" class="edge">
<title>EMPREGADO&#45;&#45;TRABALHA_NO</title>
<path fill="none" stroke="#000000" d="M71.0753,-38C123.56,-38 222.7663,-38 289.9457,-38"/>
<path fill="none" stroke="transparent" d="M71.0753,-40C123.56,-40 222.7663,-40 289.9457,-40"/>
<path fill="none" stroke="#000000" d="M71.0753,-42C123.56,-42 222.7663,-42 289.9457,-42"/>
<text text-anchor="middle" x="92.5" y="-43" font-family="Courier,monospace" font-size="10.00" fill="#000000">N</text>
</g>
<!-- CLIENTE -->
<g id="node2" class="node">
<title>CLIENTE</title>
<polygon fill="#ffffff" stroke="#000000" points="505.3683,-104 446.3683,-104 446.3683,-68 505.3683,-68 505.3683,-104"/>
<text text-anchor="middle" x="475.8683" y="-83.5" font-family="Courier,monospace" font-size="10.00" fill="#000000">CLIENTE</text>
</g>
<!-- VAI_A -->
<g id="node7" class="node">
<title>VAI_A</title>
<polygon fill="#ffffff" stroke="#000000" points="673.7601,-150 634.5052,-132 673.7601,-114 713.0151,-132 673.7601,-150"/>
<text text-anchor="middle" x="673.7601" y="-129.5" font-family="Courier,monospace" font-size="10.00" fill="#000000">VAI_A</text>
</g>
<!-- CLIENTE&#45;&#45;VAI_A -->
<g id="edge5" class="edge">
<title>CLIENTE&#45;&#45;VAI_A</title>
<path fill="none" stroke="#000000" d="M506.1399,-96.715C519.0635,-101.8065 534.6106,-107.3791 548.8697,-111.0639 579.6562,-119.0517 615.9218,-124.0911 641.3981,-126.9382"/>
<path fill="none" stroke="transparent" d="M505.4069,-98.5758C518.3887,-103.6893 533.9358,-109.2618 548.3683,-113 579.3809,-121.0326 615.6466,-126.072 641.1759,-128.9259"/>
<path fill="none" stroke="#000000" d="M504.674,-100.4367C517.7139,-105.572 533.2609,-111.1445 547.8668,-114.9361 579.1057,-123.0136 615.3713,-128.053 640.9537,-130.9135"/>
<text text-anchor="middle" x="526.8683" y="-110" font-family="Courier,monospace" font-size="10.00" fill="#000000">N</text>
</g>
<!-- PEDE -->
<g id="node10" class="node">
<title>PEDE</title>
<polygon fill="#ffffff" stroke="#000000" points="582.5006,-104 548.2354,-86 582.5006,-68 616.7657,-86 582.5006,-104"/>
<text text-anchor="middle" x="582.5006" y="-83.5" font-family="Courier,monospace" font-size="10.00" fill="#000000">PEDE</text>
</g>
<!-- CLIENTE&#45;&#45;PEDE -->
<g id="edge11" class="edge">
<title>CLIENTE&#45;&#45;PEDE</title>
<path fill="none" stroke="#000000" d="M505.5713,-84C518.7589,-84 534.3619,-84 548.0573,-84"/>
<path fill="none" stroke="transparent" d="M505.5713,-86C518.7589,-86 534.3619,-86 548.0573,-86"/>
<path fill="none" stroke="#000000" d="M505.5713,-88C518.7589,-88 534.3619,-88 548.0573,-88"/>
<text text-anchor="middle" x="526.8683" y="-89" font-family="Courier,monospace" font-size="10.00" fill="#000000">1</text>
</g>
<!-- RESTAURANTE -->
<g id="node3" class="node">
<title>RESTAURANTE</title>
<polygon fill="#ffffff" stroke="#000000" points="1062.1118,-85 979.1118,-85 979.1118,-49 1062.1118,-49 1062.1118,-85"/>
<text text-anchor="middle" x="1020.6118" y="-64.5" font-family="Courier,monospace" font-size="10.00" fill="#000000">RESTAURANTE</text>
</g>
<!-- RESPONSAVEL_POR -->
<g id="node8" class="node">
<title>RESPONSAVEL_POR</title>
<polygon fill="#ffffff" stroke="#000000" points="1194.1887,-36 1105.0347,-18 1194.1887,0 1283.3428,-18 1194.1887,-36"/>
<text text-anchor="middle" x="1194.1887" y="-15.5" font-family="Courier,monospace" font-size="10.00" fill="#000000">RESPONSAVEL_POR</text>
</g>
<!-- RESTAURANTE&#45;&#45;RESPONSAVEL_POR -->
<g id="edge7" class="edge">
<title>RESTAURANTE&#45;&#45;RESPONSAVEL_POR</title>
<path fill="none" stroke="#000000" d="M1061.6444,-53.3385C1090.4292,-45.2127 1128.4199,-34.4881 1156.2513,-26.6314"/>
<path fill="none" stroke="transparent" d="M1062.1878,-55.2633C1090.9725,-47.1375 1128.9633,-36.4129 1156.7947,-28.5562"/>
<path fill="none" stroke="#000000" d="M1062.7311,-57.1881C1091.5159,-49.0622 1129.5066,-38.3376 1157.338,-30.4809"/>
<text text-anchor="middle" x="1083.6118" y="-52" font-family="Courier,monospace" font-size="10.00" fill="#000000">1</text>
</g>
<!-- PRATO -->
<g id="node4" class="node">
<title>PRATO</title>
<polygon fill="#ffffff" stroke="#000000" points="784.8874,-104 730.8874,-104 730.8874,-68 784.8874,-68 784.8874,-104"/>
<text text-anchor="middle" x="757.8874" y="-83.5" font-family="Courier,monospace" font-size="10.00" fill="#000000">PRATO</text>
</g>
<!-- PERTENCE -->
<g id="node9" class="node">
<title>PERTENCE</title>
<polygon fill="#ffffff" stroke="#000000" points="881.9996,-104 827.775,-86 881.9996,-68 936.2242,-86 881.9996,-104"/>
<text text-anchor="middle" x="881.9996" y="-83.5" font-family="Courier,monospace" font-size="10.00" fill="#000000">PERTENCE</text>
</g>
<!-- PRATO&#45;&#45;PERTENCE -->
<g id="edge9" class="edge">
<title>PRATO&#45;&#45;PERTENCE</title>
<path fill="none" stroke="#000000" d="M785.1244,-84C797.6831,-84 813.0548,-84 827.8217,-84"/>
<path fill="none" stroke="transparent" d="M785.1244,-86C797.6831,-86 813.0548,-86 827.8217,-86"/>
<path fill="none" stroke="#000000" d="M785.1244,-88C797.6831,-88 813.0548,-88 827.8217,-88"/>
<text text-anchor="middle" x="806.3874" y="-89" font-family="Courier,monospace" font-size="10.00" fill="#000000">M</text>
</g>
<!-- TRABALHA_PARA&#45;&#45;CLIENTE -->
<g id="edge2" class="edge">
<title>TRABALHA_PARA&#45;&#45;CLIENTE</title>
<path fill="none" stroke="#000000" d="M272.2334,-84C330.0741,-84 405.2781,-84 446.1849,-84"/>
<path fill="none" stroke="transparent" d="M272.2334,-86C330.0741,-86 405.2781,-86 446.1849,-86"/>
<path fill="none" stroke="#000000" d="M272.2334,-88C330.0741,-88 405.2781,-88 446.1849,-88"/>
<text text-anchor="middle" x="359.2712" y="-89" font-family="Courier,monospace" font-size="10.00" fill="#000000">N</text>
</g>
<!-- TRABALHA_NO&#45;&#45;RESTAURANTE -->
<g id="edge4" class="edge">
<title>TRABALHA_NO&#45;&#45;RESTAURANTE</title>
<path fill="none" stroke="#000000" d="M428.5813,-38C458.7726,-38 494.5709,-38 526.8683,-38 526.8683,-38 526.8683,-38 881.9996,-38 915.374,-38.0402 951.9614,-45.4932 979.3654,-52.5914"/>
<path fill="none" stroke="transparent" d="M428.5813,-40C458.7726,-40 494.5709,-40 526.8683,-40 526.8683,-40 526.8683,-40 881.9996,-40 914.9748,-40 951.5622,-47.453 978.8637,-54.5274"/>
<path fill="none" stroke="#000000" d="M428.5813,-42C458.7726,-42 494.5709,-42 526.8683,-42 526.8683,-42 526.8683,-42 881.9996,-42 914.5756,-41.9598 951.1629,-49.4127 978.3621,-56.4635"/>
<text text-anchor="middle" x="673.7601" y="-43" font-family="Courier,monospace" font-size="10.00" fill="#000000">1</text>
</g>
<!-- VAI_A&#45;&#45;RESTAURANTE -->
<g id="edge6" class="edge">
<title>VAI_A&#45;&#45;RESTAURANTE</title>
<path fill="none" stroke="#000000" d="M708.6235,-132.0913C759.5776,-134.1345 857.2375,-134.1431 935.5487,-111.0809 955.9859,-105.1327 977.4507,-93.3661 993.4302,-83.3244"/>
<path fill="none" stroke="transparent" d="M708.5434,-134.0897C759.5774,-136.1345 857.2374,-136.1431 936.1118,-113 956.9473,-106.8865 978.4121,-95.1198 994.4941,-85.018"/>
<path fill="none" stroke="#000000" d="M708.4634,-136.0881C759.5773,-138.1345 857.2372,-138.1431 936.6749,-114.9191 957.9087,-108.6403 979.3735,-96.8736 995.5579,-86.7116"/>
<text text-anchor="middle" x="806.3874" y="-136" font-family="Courier,monospace" font-size="10.00" fill="#000000">1</text>
</g>
<!-- RESPONSAVEL_POR&#45;&#45;EMPREGADO -->
<g id="edge8" class="edge">
<title>RESPONSAVEL_POR&#45;&#45;EMPREGADO</title>
<path fill="none" stroke="#000000" d="M1141.5111,-10.6089C1107.1614,-6.4166 1061.315,-2 1020.6118,-2 193.087,-2 193.087,-2 193.087,-2 150.3096,-2 102.7748,-15.3965 71.2127,-26.2811"/>
<text text-anchor="middle" x="673.7601" y="-5" font-family="Courier,monospace" font-size="10.00" fill="#000000">1</text>
</g>
<!-- PERTENCE&#45;&#45;RESTAURANTE -->
<g id="edge10" class="edge">
<title>PERTENCE&#45;&#45;RESTAURANTE</title>
<path fill="none" stroke="#000000" d="M920.3392,-78.726C938.4431,-76.2444 960.0488,-73.2828 978.5375,-70.7485"/>
<path fill="none" stroke="transparent" d="M920.6108,-80.7074C938.7147,-78.2259 960.3204,-75.2643 978.8091,-72.73"/>
<path fill="none" stroke="#000000" d="M920.8824,-82.6889C938.9863,-80.2074 960.592,-77.2458 979.0807,-74.7115"/>
<text text-anchor="middle" x="957.6118" y="-78" font-family="Courier,monospace" font-size="10.00" fill="#000000">N</text>
</g>
<!-- PEDE&#45;&#45;PRATO -->
<g id="edge12" class="edge">
<title>PEDE&#45;&#45;PRATO</title>
<path fill="none" stroke="#000000" d="M616.7333,-86C650.0294,-86 699.953,-86 730.6411,-86"/>
<text text-anchor="middle" x="673.7601" y="-89" font-family="Courier,monospace" font-size="10.00" fill="#000000">1</text>
</g>
</g>
</svg>
