<?xml version="1.0" encoding="UTF-8" standalone="no"?>
<!DOCTYPE svg PUBLIC "-//W3C//DTD SVG 1.1//EN"
 "http://www.w3.org/Graphics/SVG/1.1/DTD/svg11.dtd">
<!-- Generated by graphviz version 2.40.1 (20161225.0304)
 -->
<!-- Title: %3 Pages: 1 -->
<svg width="478pt" height="401pt"
 viewBox="0.00 0.00 478.00 401.45" xmlns="http://www.w3.org/2000/svg" xmlns:xlink="http://www.w3.org/1999/xlink">
<g id="graph0" class="graph" transform="scale(1 1) rotate(0) translate(4 397.447)">
<title>%3</title>
<polygon fill="#ffffff" stroke="transparent" points="-4,4 -4,-397.447 474,-397.447 474,4 -4,4"/>
<!-- PRATO -->
<g id="node1" class="node">
<title>PRATO</title>
<polygon fill="#ffffff" stroke="transparent" points="452.5,-315.947 398.5,-315.947 398.5,-239.947 452.5,-239.947 452.5,-315.947"/>
<polygon fill="none" stroke="#000000" points="407.5,-294.947 407.5,-311.947 444.5,-311.947 444.5,-294.947 407.5,-294.947"/>
<text text-anchor="start" x="410.5" y="-301.947" font-family="Courier,monospace" font-weight="bold" font-size="10.00" fill="#000000">PRATO</text>
<polygon fill="none" stroke="#000000" points="407.5,-277.947 407.5,-294.947 444.5,-294.947 444.5,-277.947 407.5,-277.947"/>
<text text-anchor="start" x="410.5" y="-284.947" font-family="Courier,monospace" text-decoration="underline" font-size="10.00" fill="#000000">IdPra</text>
<polygon fill="none" stroke="#000000" points="407.5,-260.947 407.5,-277.947 444.5,-277.947 444.5,-260.947 407.5,-260.947"/>
<text text-anchor="start" x="410.5" y="-266.947" font-family="Courier,monospace" font-size="10.00" fill="#000000">Nome</text>
<polygon fill="none" stroke="#000000" points="407.5,-243.947 407.5,-260.947 444.5,-260.947 444.5,-243.947 407.5,-243.947"/>
<text text-anchor="start" x="410.5" y="-249.947" font-family="Courier,monospace" font-size="10.00" fill="#000000">Preco</text>
</g>
<!-- INGREDIENTE -->
<g id="node2" class="node">
<title>INGREDIENTE</title>
<polygon fill="#ffffff" stroke="transparent" points="342,-393.447 247,-393.447 247,-334.447 342,-334.447 342,-393.447"/>
<polygon fill="none" stroke="#000000" points="255.5,-371.947 255.5,-388.947 334.5,-388.947 334.5,-371.947 255.5,-371.947"/>
<text text-anchor="start" x="258.5" y="-378.947" font-family="Courier,monospace" font-weight="bold" font-size="10.00" fill="#000000">INGREDIENTE</text>
<polygon fill="none" stroke="#000000" points="255.5,-354.947 255.5,-371.947 334.5,-371.947 334.5,-354.947 255.5,-354.947"/>
<text text-anchor="start" x="258.5" y="-361.947" font-family="Courier,monospace" text-decoration="underline" font-size="10.00" fill="#000000">IdP_</text>
<polygon fill="none" stroke="#000000" points="255.5,-337.947 255.5,-354.947 334.5,-354.947 334.5,-337.947 255.5,-337.947"/>
<text text-anchor="start" x="258.5" y="-344.947" font-family="Courier,monospace" text-decoration="underline" font-size="10.00" fill="#000000">Ingredientes</text>
</g>
<!-- INGREDIENTE&#45;&gt;PRATO -->
<g id="edge1" class="edge">
<title>INGREDIENTE:IdP_&#45;&gt;PRATO:IdPra</title>
<path fill="none" stroke="#000000" d="M334.5,-362.947C377.4937,-362.947 363.6015,-298.9044 397.2623,-288.3974"/>
<polygon fill="#000000" stroke="#000000" points="398.0898,-291.8152 407.5,-286.947 397.1079,-284.8844 398.0898,-291.8152"/>
</g>
<!-- CLIENTE -->
<g id="node3" class="node">
<title>CLIENTE</title>
<polygon fill="#ffffff" stroke="transparent" points="208,-156.947 113,-156.947 113,-46.947 208,-46.947 208,-156.947"/>
<polygon fill="none" stroke="#000000" points="121.5,-135.947 121.5,-152.947 200.5,-152.947 200.5,-135.947 121.5,-135.947"/>
<text text-anchor="start" x="124.5" y="-142.947" font-family="Courier,monospace" font-weight="bold" font-size="10.00" fill="#000000">CLIENTE</text>
<polygon fill="none" stroke="#000000" points="121.5,-118.947 121.5,-135.947 200.5,-135.947 200.5,-118.947 121.5,-118.947"/>
<text text-anchor="start" x="124.5" y="-125.947" font-family="Courier,monospace" text-decoration="underline" font-size="10.00" fill="#000000">IdCli</text>
<polygon fill="none" stroke="#000000" points="121.5,-101.947 121.5,-118.947 200.5,-118.947 200.5,-101.947 121.5,-101.947"/>
<text text-anchor="start" x="124.5" y="-107.947" font-family="Courier,monospace" font-size="10.00" fill="#000000">Nome</text>
<polygon fill="none" stroke="#000000" points="121.5,-84.947 121.5,-101.947 200.5,-101.947 200.5,-84.947 121.5,-84.947"/>
<text text-anchor="start" x="124.5" y="-90.947" font-family="Courier,monospace" font-size="10.00" fill="#000000">Localidade ?</text>
<polygon fill="none" stroke="#000000" points="121.5,-67.947 121.5,-84.947 200.5,-84.947 200.5,-67.947 121.5,-67.947"/>
<text text-anchor="start" x="124.5" y="-73.947" font-family="Courier,monospace" font-size="10.00" fill="#000000">CRefeicao</text>
<polygon fill="none" stroke="#000000" points="121.5,-50.947 121.5,-67.947 200.5,-67.947 200.5,-50.947 121.5,-50.947"/>
<text text-anchor="start" x="124.5" y="-56.947" font-family="Courier,monospace" font-size="10.00" fill="#000000">Restaurante</text>
</g>
<!-- CLIENTE&#45;&gt;PRATO -->
<g id="edge2" class="edge">
<title>CLIENTE:CRefeicao&#45;&gt;PRATO:IdPra</title>
<path fill="none" stroke="#000000" d="M200.5,-75.947C279.7823,-75.947 187.4373,-193.3921 244,-248.947 268.4813,-272.9921 354.7169,-284.9557 397.4101,-286.7176"/>
<polygon fill="#000000" stroke="#000000" points="397.423,-290.2187 407.5,-286.947 397.5822,-283.2205 397.423,-290.2187"/>
</g>
<!-- RESTAURANTE -->
<g id="node4" class="node">
<title>RESTAURANTE</title>
<polygon fill="#ffffff" stroke="transparent" points="345,-239.947 244,-239.947 244,-61.947 345,-61.947 345,-239.947"/>
<polygon fill="none" stroke="#000000" points="252.5,-218.947 252.5,-235.947 337.5,-235.947 337.5,-218.947 252.5,-218.947"/>
<text text-anchor="start" x="255.5" y="-225.947" font-family="Courier,monospace" font-weight="bold" font-size="10.00" fill="#000000">RESTAURANTE</text>
<polygon fill="none" stroke="#000000" points="252.5,-201.947 252.5,-218.947 337.5,-218.947 337.5,-201.947 252.5,-201.947"/>
<text text-anchor="start" x="255.5" y="-208.947" font-family="Courier,monospace" text-decoration="underline" font-size="10.00" fill="#000000">IdRes</text>
<polygon fill="none" stroke="#000000" points="252.5,-184.947 252.5,-201.947 337.5,-201.947 337.5,-184.947 252.5,-184.947"/>
<text text-anchor="start" x="255.5" y="-190.947" font-family="Courier,monospace" font-size="10.00" fill="#000000">Nome</text>
<polygon fill="none" stroke="#000000" points="252.5,-167.947 252.5,-184.947 337.5,-184.947 337.5,-167.947 252.5,-167.947"/>
<text text-anchor="start" x="255.5" y="-173.947" font-family="Courier,monospace" font-size="10.00" fill="#000000">Responsavel</text>
<polygon fill="none" stroke="#000000" points="252.5,-150.947 252.5,-167.947 337.5,-167.947 337.5,-150.947 252.5,-150.947"/>
<text text-anchor="start" x="255.5" y="-156.947" font-family="Courier,monospace" font-size="10.00" fill="#000000">Horario</text>
<polygon fill="none" stroke="#000000" points="252.5,-133.947 252.5,-150.947 337.5,-150.947 337.5,-133.947 252.5,-133.947"/>
<text text-anchor="start" x="255.5" y="-139.947" font-family="Courier,monospace" font-size="10.00" fill="#000000">Especialidade</text>
<polygon fill="none" stroke="#000000" points="252.5,-116.947 252.5,-133.947 337.5,-133.947 337.5,-116.947 252.5,-116.947"/>
<text text-anchor="start" x="255.5" y="-122.947" font-family="Courier,monospace" font-size="10.00" fill="#000000">MCp</text>
<polygon fill="none" stroke="#000000" points="252.5,-99.947 252.5,-116.947 337.5,-116.947 337.5,-99.947 252.5,-99.947"/>
<text text-anchor="start" x="255.5" y="-105.947" font-family="Courier,monospace" font-size="10.00" fill="#000000">MAndar ?</text>
<polygon fill="none" stroke="#000000" points="252.5,-82.947 252.5,-99.947 337.5,-99.947 337.5,-82.947 252.5,-82.947"/>
<text text-anchor="start" x="255.5" y="-88.947" font-family="Courier,monospace" font-size="10.00" fill="#000000">MRua</text>
<polygon fill="none" stroke="#000000" points="252.5,-65.947 252.5,-82.947 337.5,-82.947 337.5,-65.947 252.5,-65.947"/>
<text text-anchor="start" x="255.5" y="-71.947" font-family="Courier,monospace" font-size="10.00" fill="#000000">MLocalidade</text>
</g>
<!-- CLIENTE&#45;&gt;RESTAURANTE -->
<g id="edge3" class="edge">
<title>CLIENTE:Restaurante&#45;&gt;RESTAURANTE:IdRes</title>
<path fill="none" stroke="#000000" d="M200.5,-58.947C268.1342,-58.947 190.226,-195.3385 242.51,-209.7235"/>
<polygon fill="#000000" stroke="#000000" points="242.1487,-213.2053 252.5,-210.947 242.9997,-206.2572 242.1487,-213.2053"/>
</g>
<!-- RESTAURANTE&#45;&gt;PRATO -->
<g id="edge8" class="edge">
<title>RESTAURANTE:Especialidade&#45;&gt;PRATO:IdPra</title>
<path fill="none" stroke="#000000" d="M337.5,-141.947C405.2873,-141.947 343.2487,-272.0573 397.3434,-285.7799"/>
<polygon fill="#000000" stroke="#000000" points="397.1658,-289.2824 407.5,-286.947 397.965,-282.3282 397.1658,-289.2824"/>
</g>
<!-- EMPREGADO -->
<g id="node6" class="node">
<title>EMPREGADO</title>
<polygon fill="#ffffff" stroke="transparent" points="470,-185.947 381,-185.947 381,-41.947 470,-41.947 470,-185.947"/>
<polygon fill="none" stroke="#000000" points="389.5,-164.947 389.5,-181.947 462.5,-181.947 462.5,-164.947 389.5,-164.947"/>
<text text-anchor="start" x="392.5" y="-171.947" font-family="Courier,monospace" font-weight="bold" font-size="10.00" fill="#000000">EMPREGADO</text>
<polygon fill="none" stroke="#000000" points="389.5,-147.947 389.5,-164.947 462.5,-164.947 462.5,-147.947 389.5,-147.947"/>
<text text-anchor="start" x="392.5" y="-154.947" font-family="Courier,monospace" text-decoration="underline" font-size="10.00" fill="#000000">IdEmp</text>
<polygon fill="none" stroke="#000000" points="389.5,-130.947 389.5,-147.947 462.5,-147.947 462.5,-130.947 389.5,-130.947"/>
<text text-anchor="start" x="392.5" y="-136.947" font-family="Courier,monospace" font-size="10.00" fill="#000000">Nome</text>
<polygon fill="none" stroke="#000000" points="389.5,-113.947 389.5,-130.947 462.5,-130.947 462.5,-113.947 389.5,-113.947"/>
<text text-anchor="start" x="392.5" y="-119.947" font-family="Courier,monospace" font-size="10.00" fill="#000000">Ordenado</text>
<polygon fill="none" stroke="#000000" points="389.5,-96.947 389.5,-113.947 462.5,-113.947 462.5,-96.947 389.5,-96.947"/>
<text text-anchor="start" x="392.5" y="-102.947" font-family="Courier,monospace" font-size="10.00" fill="#000000">Restaurante</text>
<polygon fill="none" stroke="#000000" points="389.5,-79.947 389.5,-96.947 462.5,-96.947 462.5,-79.947 389.5,-79.947"/>
<text text-anchor="start" x="392.5" y="-85.947" font-family="Courier,monospace" font-size="10.00" fill="#000000">Funcao</text>
<polygon fill="none" stroke="#000000" points="389.5,-62.947 389.5,-79.947 462.5,-79.947 462.5,-62.947 389.5,-62.947"/>
<text text-anchor="start" x="392.5" y="-68.947" font-family="Courier,monospace" font-size="10.00" fill="#000000">DataNasc</text>
<polygon fill="none" stroke="#000000" points="389.5,-45.947 389.5,-62.947 462.5,-62.947 462.5,-45.947 389.5,-45.947"/>
<text text-anchor="start" x="392.5" y="-51.947" font-family="Courier,monospace" font-size="10.00" fill="#000000">Cliente</text>
</g>
<!-- RESTAURANTE&#45;&gt;EMPREGADO -->
<g id="edge7" class="edge">
<title>RESTAURANTE:Responsavel&#45;&gt;EMPREGADO:IdEmp</title>
<path fill="none" stroke="#000000" d="M337.5,-176.947C358.3926,-176.947 363.4203,-162.7087 379.3552,-158.2593"/>
<polygon fill="#000000" stroke="#000000" points="380.0316,-161.701 389.5,-156.947 379.1336,-154.7589 380.0316,-161.701"/>
</g>
<!-- NUM_TEL -->
<g id="node5" class="node">
<title>NUM_TEL</title>
<polygon fill="#ffffff" stroke="transparent" points="77,-158.447 0,-158.447 0,-99.447 77,-99.447 77,-158.447"/>
<polygon fill="none" stroke="#000000" points="8.5,-136.947 8.5,-153.947 69.5,-153.947 69.5,-136.947 8.5,-136.947"/>
<text text-anchor="start" x="11.5" y="-143.947" font-family="Courier,monospace" font-weight="bold" font-size="10.00" fill="#000000">NUM_TEL</text>
<polygon fill="none" stroke="#000000" points="8.5,-119.947 8.5,-136.947 69.5,-136.947 69.5,-119.947 8.5,-119.947"/>
<text text-anchor="start" x="11.5" y="-126.947" font-family="Courier,monospace" text-decoration="underline" font-size="10.00" fill="#000000">IdCli</text>
<polygon fill="none" stroke="#000000" points="8.5,-102.947 8.5,-119.947 69.5,-119.947 69.5,-102.947 8.5,-102.947"/>
<text text-anchor="start" x="11.5" y="-109.947" font-family="Courier,monospace" text-decoration="underline" font-size="10.00" fill="#000000">Telemovel</text>
</g>
<!-- NUM_TEL&#45;&gt;CLIENTE -->
<g id="edge4" class="edge">
<title>NUM_TEL:IdCli&#45;&gt;CLIENTE:IdCli</title>
<path fill="none" stroke="#000000" d="M69.5,-127.947C88.8194,-127.947 96.0265,-127.947 111.3716,-127.947"/>
<polygon fill="#000000" stroke="#000000" points="111.5,-131.4471 121.5,-127.947 111.5,-124.4471 111.5,-131.4471"/>
</g>
<!-- EMPREGADO&#45;&gt;CLIENTE -->
<g id="edge6" class="edge">
<title>EMPREGADO:Cliente&#45;&gt;CLIENTE:IdCli</title>
<path fill="none" stroke="#000000" d="M389.5,-53.947C324.8318,-53.947 300.0364,-20.6685 244,-52.947 214.1309,-70.1524 233.726,-116.5903 210.6091,-126.1943"/>
<polygon fill="#000000" stroke="#000000" points="209.7551,-122.7901 200.5,-127.947 210.9509,-129.6872 209.7551,-122.7901"/>
</g>
<!-- EMPREGADO&#45;&gt;RESTAURANTE -->
<g id="edge5" class="edge">
<title>EMPREGADO:Restaurante&#45;&gt;RESTAURANTE:IdRes</title>
<path fill="none" stroke="#000000" d="M389.5,-104.947C340.92,-104.947 382.6956,-195.7965 347.5278,-209.282"/>
<polygon fill="#000000" stroke="#000000" points="346.7916,-205.8563 337.5,-210.947 347.9383,-212.7617 346.7916,-205.8563"/>
</g>
<!-- PERTENCE -->
<g id="node7" class="node">
<title>PERTENCE</title>
<polygon fill="#ffffff" stroke="transparent" points="196,-297.447 125,-297.447 125,-238.447 196,-238.447 196,-297.447"/>
<polygon fill="none" stroke="#000000" points="133.5,-275.947 133.5,-292.947 188.5,-292.947 188.5,-275.947 133.5,-275.947"/>
<text text-anchor="start" x="136.5" y="-282.947" font-family="Courier,monospace" font-weight="bold" font-size="10.00" fill="#000000">PERTENCE</text>
<polygon fill="none" stroke="#000000" points="133.5,-258.947 133.5,-275.947 188.5,-275.947 188.5,-258.947 133.5,-258.947"/>
<text text-anchor="start" x="136.5" y="-264.947" font-family="Courier,monospace" font-size="10.00" fill="#000000">_IdPra_</text>
<polygon fill="none" stroke="#000000" points="133.5,-241.947 133.5,-258.947 188.5,-258.947 188.5,-241.947 133.5,-241.947"/>
<text text-anchor="start" x="136.5" y="-247.947" font-family="Courier,monospace" font-size="10.00" fill="#000000">_IdRes_</text>
</g>
<!-- PERTENCE&#45;&gt;PRATO -->
<g id="edge9" class="edge">
<title>PERTENCE:_IdPra_&#45;&gt;PRATO:IdPra</title>
<path fill="none" stroke="#000000" d="M188.5,-266.947C214.0517,-266.947 218.7249,-278.1977 244,-281.947 312.4023,-292.0939 332.8286,-287.4616 397.223,-286.985"/>
<polygon fill="#000000" stroke="#000000" points="397.513,-290.4841 407.5,-286.947 397.4871,-283.4841 397.513,-290.4841"/>
</g>
<!-- PERTENCE&#45;&gt;RESTAURANTE -->
<g id="edge10" class="edge">
<title>PERTENCE:_IdRes_&#45;&gt;RESTAURANTE:IdRes</title>
<path fill="none" stroke="#000000" d="M188.5,-249.947C218.0363,-249.947 219.3227,-219.2825 242.4587,-212.3351"/>
<polygon fill="#000000" stroke="#000000" points="243.0735,-215.7834 252.5,-210.947 242.1149,-208.8494 243.0735,-215.7834"/>
</g>
<!-- EMP_CLI -->
<g id="node8" class="node">
<title>EMP_CLI</title>
<polygon fill="#ffffff" stroke="transparent" points="71,-74.447 6,-74.447 6,-15.447 71,-15.447 71,-74.447"/>
<polygon fill="none" stroke="#000000" points="14.5,-52.947 14.5,-69.947 63.5,-69.947 63.5,-52.947 14.5,-52.947"/>
<text text-anchor="start" x="17.5" y="-59.947" font-family="Courier,monospace" font-weight="bold" font-size="10.00" fill="#000000">EMP_CLI</text>
<polygon fill="none" stroke="#000000" points="14.5,-35.947 14.5,-52.947 63.5,-52.947 63.5,-35.947 14.5,-35.947"/>
<text text-anchor="start" x="17.5" y="-42.947" font-family="Courier,monospace" text-decoration="underline" font-size="10.00" fill="#000000">IdCli</text>
<polygon fill="none" stroke="#000000" points="14.5,-18.947 14.5,-35.947 63.5,-35.947 63.5,-18.947 14.5,-18.947"/>
<text text-anchor="start" x="17.5" y="-24.947" font-family="Courier,monospace" font-size="10.00" fill="#000000">_IdEmp_</text>
</g>
<!-- EMP_CLI&#45;&gt;CLIENTE -->
<g id="edge11" class="edge">
<title>EMP_CLI:IdCli&#45;&gt;CLIENTE:IdCli</title>
<path fill="none" stroke="#000000" d="M63.5,-43.947C104.9694,-43.947 81.1816,-114.1299 111.4348,-126.1926"/>
<polygon fill="#000000" stroke="#000000" points="111.0475,-129.6777 121.5,-127.947 112.2496,-122.7817 111.0475,-129.6777"/>
</g>
<!-- EMP_CLI&#45;&gt;EMPREGADO -->
<g id="edge12" class="edge">
<title>EMP_CLI:_IdEmp_&#45;&gt;EMPREGADO:IdEmp</title>
<path fill="none" stroke="#000000" d="M63.5,-26.947C188.6616,-26.947 243.4784,38.2568 345,-34.947 388.7065,-66.4623 339.2852,-145.4675 379.4937,-155.8214"/>
<polygon fill="#000000" stroke="#000000" points="379.1714,-159.3072 389.5,-156.947 379.954,-152.351 379.1714,-159.3072"/>
</g>
</g>
</svg>
